<svg xmlns="http://www.w3.org/2000/svg" width="138.682" height="46.28" viewBox="0 0 138.682 46.28">
  <g id="Group_746" data-name="Group 746" transform="translate(-306.648 -432.932)">
    <g id="Group_745" data-name="Group 745" transform="translate(306.648 448.974)">
      <path id="Path_18720" data-name="Path 18720" d="M343.336,492.236c0,1.017.47,1.761,4.032,3.092,4.736,1.722,9.512,4.541,9.512,9.9a9.226,9.226,0,0,1-9.59,9.042c-4.815,0-8.338-2.074-11.235-6.615l4.658-3.6c1.331,1.957,3.915,3.954,6.576,3.836,1.722-.078,2.857-1.174,2.818-2.348-.039-1.292-2.348-2.936-5.676-4.189-4.384-1.683-7.555-4.11-7.555-9.12,0-3.836,3.327-8.142,8.964-8.142,3.131,0,6.576.2,10.608,4.854l-5.011,3.719a7.133,7.133,0,0,0-5.6-2.349C344.51,490.318,343.336,491.3,343.336,492.236Z" transform="translate(-336.055 -484.094)" fill="#1e3f5b"/>
      <path id="Path_18721" data-name="Path 18721" d="M634.75,484.969h6.459v18.75c0,7.437-6.3,11.117-11.743,11.117-5.519,0-11.783-3.679-11.783-11.117v-18.75h6.459v17.615a5.1,5.1,0,0,0,5.324,5.4,5.172,5.172,0,0,0,5.285-5.4Z" transform="translate(-529.378 -484.695)" fill="#1e3f5b"/>
      <path id="Path_18722" data-name="Path 18722" d="M714.552,514.327V491.349h-7.985v-6.38h22.508v6.38H721.01v22.978Z" transform="translate(-590.392 -484.695)" fill="#1e3f5b"/>
    </g>
    <path id="Path_18723" data-name="Path 18723" d="M470.311,453.406c-4.708-4.7-14.045-7.177-21.934.295q-.653.608-1.286,1.316-.673-.628-1.386-1.222c-2.967-2.475-6.4-4.4-10.331-4.665a15,15,0,0,0-12.38,24.734,14.5,14.5,0,0,0,9.336,5.17c5.988.847,10.813-1.373,14.647-5.837,8.392,7.521,17.276,7.927,23.666,1.236A15.269,15.269,0,0,0,470.311,453.406Zm-3.727,17.072a9.355,9.355,0,0,1-9.048,2.88c-3.1-.737-4.973-3.088-7.082-5.274-2.29-2.374-4.451-2.408-6.728-.037-.877.911-1.718,1.858-2.619,2.746a9.259,9.259,0,0,1-13.519-.311,9.838,9.838,0,0,1-2.384-7.253,9.187,9.187,0,0,1,3.355-6.577,8.992,8.992,0,0,1,8.409-1.6c2.789.995,4.862,3.332,6.952,5.318,2.2,2.093,4.276,2.026,6.426-.1,3.228-3.2,6.232-6.533,11.262-5.475C468.656,456.266,471.4,465.234,466.584,470.478Zm-29-6.428a3.5,3.5,0,1,1-3.5-3.5A3.5,3.5,0,0,1,437.58,464.049Zm25.47,0a3.5,3.5,0,1,1-3.5-3.5A3.5,3.5,0,0,1,463.05,464.049ZM450.181,436.3a3.348,3.348,0,0,1-1.633,2.883v9.514l-.128.118c-.422.4-.847.831-1.258,1.291l-.272.3-.3-.278c-.452-.422-.914-.828-1.371-1.207l-.145-.12v-9.621a3.367,3.367,0,1,1,5.106-2.883Z" transform="translate(-86.623)" fill="#3545d6"/>
  </g>
</svg>
