<?xml version="1.0" encoding="utf-8"?>
<!-- Generator: Adobe Illustrator 26.0.1, SVG Export Plug-In . SVG Version: 6.00 Build 0)  -->
<svg version="1.1" id="Layer_1" xmlns="http://www.w3.org/2000/svg" xmlns:xlink="http://www.w3.org/1999/xlink" x="0px" y="0px"
	 viewBox="0 0 20 20" style="enable-background:new 0 0 20 20;" xml:space="preserve">
<style type="text/css">
	.st0{fill:#1D3F5B;}
	.st1{fill:url(#SVGID_1_);}
	.st2{fill:url(#SVGID_00000000220995636607186990000003922174258425466249_);}
</style>
<path class="st0" d="M18.42,9.04c-1.7-1.7-5.08-2.6-7.94,0.11c-0.16,0.15-0.31,0.31-0.47,0.48c-0.16-0.15-0.33-0.3-0.5-0.44
	C8.44,8.28,7.2,7.58,5.78,7.49C4.3,7.39,2.82,7.9,1.74,8.91c-2.13,2-2.33,5.28-0.44,7.53c0.88,1.05,2.02,1.68,3.38,1.87
	c2.17,0.31,3.91-0.5,5.3-2.11c3.04,2.72,6.25,2.87,8.56,0.45C20.54,14.55,20.47,11.08,18.42,9.04z M17.07,15.21
	c-0.83,0.91-2.07,1.33-3.27,1.04c-1.12-0.27-1.8-1.12-2.56-1.91c-0.83-0.86-1.61-0.87-2.43-0.01c-0.32,0.33-0.62,0.67-0.95,0.99
	c-1.38,1.36-3.58,1.36-4.89-0.11c-0.64-0.72-0.93-1.69-0.86-2.62c0.07-0.91,0.47-1.79,1.21-2.38c0.83-0.67,2.02-0.94,3.04-0.58
	c1.01,0.36,1.76,1.21,2.52,1.92c0.8,0.76,1.55,0.73,2.33-0.04c1.17-1.16,2.26-2.36,4.08-1.98C17.82,10.07,18.82,13.32,17.07,15.21z
	 M6.58,12.89c0,0.7-0.57,1.27-1.27,1.27s-1.27-0.57-1.27-1.27c0-0.7,0.57-1.27,1.27-1.27S6.58,12.19,6.58,12.89z M15.79,12.89
	c0,0.7-0.57,1.27-1.27,1.27c-0.7,0-1.27-0.57-1.27-1.27c0-0.7,0.57-1.27,1.27-1.27C15.23,11.62,15.79,12.19,15.79,12.89z
	 M11.14,2.84c0,0.43-0.22,0.82-0.59,1.04v3.44L10.5,7.37c-0.15,0.14-0.31,0.3-0.46,0.47l-0.1,0.11l-0.11-0.1
	c-0.16-0.15-0.33-0.3-0.5-0.44L9.29,7.37V3.89C8.92,3.67,8.7,3.28,8.7,2.84c0-0.67,0.55-1.22,1.22-1.22
	C10.59,1.63,11.14,2.17,11.14,2.84z"/>
</svg>
